<svg width="211" height="41" viewBox="0 0 211 41" fill="none" xmlns="http://www.w3.org/2000/svg">
<g clip-path="url(#clip0_720_542)">
<path d="M134.603 23.3995C135.115 23.4053 135.62 23.277 136.065 23.0278C136.502 22.7781 136.86 22.4144 137.099 21.9772C137.35 21.4953 137.481 20.9619 137.481 20.4208C137.481 19.8797 137.35 19.3464 137.099 18.8644C136.861 18.4267 136.503 18.0627 136.065 17.8138C135.618 17.5701 135.115 17.4421 134.604 17.4421C134.093 17.4421 133.59 17.5701 133.143 17.8138C132.705 18.0634 132.346 18.4271 132.107 18.8644C131.857 19.3469 131.727 19.8801 131.727 20.4208C131.727 20.9616 131.857 21.4948 132.107 21.9772C132.348 22.4143 132.708 22.7779 133.146 23.0278C133.59 23.2774 134.094 23.4058 134.606 23.3995H134.603ZM134.606 25.8416C133.55 25.8573 132.507 25.6163 131.57 25.1403C130.689 24.6891 129.951 24.0107 129.437 23.1785C128.922 22.3463 128.65 21.3922 128.65 20.4194C128.65 19.4467 128.922 18.4925 129.437 17.6603C129.951 16.8282 130.689 16.1497 131.57 15.6986C132.513 15.2391 133.553 15 134.607 15C135.661 15 136.701 15.2391 137.644 15.6986C138.523 16.1511 139.259 16.83 139.773 17.662C140.286 18.494 140.558 19.4475 140.558 20.4194C140.558 21.3914 140.286 22.3448 139.773 23.1768C139.259 24.0089 138.523 24.6878 137.644 25.1403C136.705 25.6171 135.66 25.8581 134.603 25.8416H134.606ZM127.223 23.3548V25.6321H118.667V15.2096H127.023V17.4869H121.652V19.2445H126.384V21.4631H121.652V23.3687L127.223 23.3548ZM116.868 17.5512H112.031V25.6376H109.063V15.2152H116.868V17.5512ZM101.847 21.6475H100.476V25.6376H97.4775V15.2152H100.476V19.264H101.921L104.463 15.2152H107.616L104.283 20.2448L107.644 25.6348H104.251L101.847 21.6475ZM90.8263 20.5885C91.3258 20.624 91.8219 20.4843 92.2257 20.1945C92.3848 20.0546 92.5097 19.8816 92.5912 19.6881C92.6728 19.4946 92.7089 19.2857 92.6969 19.0768C92.7071 18.8681 92.6701 18.6597 92.5887 18.4665C92.5073 18.2733 92.3833 18.1001 92.2257 17.9591C91.8242 17.664 91.3271 17.5211 90.8263 17.5567H89.15V20.608L90.8263 20.5885ZM91.0091 15.2152C91.8702 15.1949 92.7259 15.354 93.5193 15.6818C94.1961 15.965 94.7729 16.4363 95.1783 17.0374C95.5837 17.6384 95.7998 18.3427 95.7998 19.0628C95.7998 19.783 95.5837 20.4872 95.1783 21.0883C94.7729 21.6893 94.1961 22.1607 93.5193 22.4438C92.7261 22.7727 91.8704 22.9327 91.0091 22.9133H89.15V25.6376H86.1229V15.2152H91.0091ZM79.6088 21.4323L78.238 18.11L76.8673 21.4435L79.6088 21.4323ZM80.4913 23.6062H75.9848L75.1481 25.6321H72.0752L76.7787 15.2096H79.743L84.4608 25.6321H81.3194L80.4913 23.6062ZM211.001 17.5456H207.745V25.6321H204.764V17.5512H201.491V15.2152H210.986L211.001 17.5456ZM195.325 21.6419H193.954V25.6321H190.956V15.2096H193.954V19.2584H195.4L197.941 15.2096H201.108L197.776 20.2392L201.114 25.6321H197.73L195.325 21.6419ZM188.834 23.3548V25.6321H180.287V15.2096H188.643V17.4869H183.271V19.2445H188.003V21.4631H183.271V23.3687L188.834 23.3548ZM172.305 23.3995C172.817 23.4049 173.322 23.2766 173.767 23.0278C174.203 22.7766 174.561 22.4133 174.801 21.9772C175.05 21.4948 175.18 20.9616 175.18 20.4208C175.18 19.8801 175.05 19.3469 174.801 18.8644C174.561 18.4279 174.204 18.0643 173.767 17.8138C173.32 17.5701 172.817 17.4422 172.305 17.4422C171.793 17.4422 171.29 17.5701 170.843 17.8138C170.406 18.0643 170.048 18.4279 169.809 18.8644C169.559 19.3469 169.429 19.8801 169.429 20.4208C169.429 20.9616 169.559 21.4948 169.809 21.9772C170.049 22.4133 170.406 22.7766 170.843 23.0278C171.289 23.2776 171.796 23.4059 172.31 23.3995H172.305ZM172.305 25.8416C171.249 25.8577 170.206 25.6167 169.269 25.1403C168.388 24.6891 167.651 24.0107 167.136 23.1785C166.621 22.3463 166.349 21.3922 166.349 20.4194C166.349 19.4467 166.621 18.4925 167.136 17.6603C167.651 16.8282 168.388 16.1497 169.269 15.6986C170.212 15.2392 171.251 15 172.305 15C173.358 15 174.397 15.2392 175.34 15.6986C176.221 16.1497 176.959 16.8282 177.474 17.6603C177.989 18.4925 178.261 19.4467 178.261 20.4194C178.261 21.3922 177.989 22.3463 177.474 23.1785C176.959 24.0107 176.221 24.6891 175.34 25.1403C174.405 25.6158 173.364 25.8567 172.31 25.8416H172.305ZM160.205 20.5829C160.704 20.6184 161.2 20.4787 161.604 20.1889C161.763 20.049 161.888 19.876 161.97 19.6825C162.051 19.4891 162.087 19.2801 162.075 19.0712C162.086 18.8625 162.049 18.6541 161.967 18.4609C161.886 18.2678 161.762 18.0945 161.604 17.9535C161.203 17.6585 160.706 17.5155 160.205 17.5512H158.534V20.6024L160.205 20.5829ZM160.388 15.2096C161.249 15.1893 162.104 15.3484 162.898 15.6762C163.568 15.956 164.139 16.4224 164.54 17.0175C164.932 17.6304 165.131 18.3428 165.111 19.0656C165.136 19.7824 164.937 20.4895 164.54 21.0923C164.143 21.695 163.567 22.1647 162.889 22.4383C162.096 22.7671 161.24 22.9272 160.379 22.9077H158.534V25.6321H155.521V15.2096H160.388ZM152.791 15.2096V25.6321H149.813V17.5512H145.766V25.6376H142.796V15.2152L152.791 15.2096ZM67.6431 25.6321L67.6288 20.1079L64.8929 24.6038H63.5507L60.812 20.228V25.6321H58.0391V15.2096H60.5207L64.2647 21.2256L67.9172 15.2096H70.3989L70.4303 25.6321H67.6431Z" fill="white"/>
<path fill-rule="evenodd" clip-rule="evenodd" d="M18.0008 0L6.4115 1.4049L0 20.9587L6.71039 41.0717L32.3124 41.1147L45.1881 21.0132L27.8378 9.71958L18.0008 0Z" fill="#FDCB00"/>
<path fill-rule="evenodd" clip-rule="evenodd" d="M18.1444 5.49072L9.46487 6.54296L4.66211 21.1883L9.9132 36.2465L28.8635 36.2866L38.51 21.2284L25.5141 12.7704L18.1444 5.49072Z" fill="#FF9500"/>
<path fill-rule="evenodd" clip-rule="evenodd" d="M18.4673 14.1094L13.9195 14.6627L11.4023 22.3352L14.1539 30.2227L24.0817 30.2427L29.1365 22.3553L22.3265 17.9255L18.4673 14.1094Z" fill="#D7592A"/>
</g>
<defs>
<clipPath id="clip0_720_542">
<rect width="211" height="41" fill="white"/>
</clipPath>
</defs>
</svg>
