<svg width="25" height="25" viewBox="0 0 25 25" fill="none" xmlns="http://www.w3.org/2000/svg">
<path d="M7.5625 12.6C8.59153 14.7251 10.3098 16.439 12.4375 17.4625C12.5944 17.5369 12.768 17.569 12.9412 17.5559C13.1143 17.5427 13.2811 17.4847 13.425 17.3875L16.55 15.3C16.6881 15.2064 16.8476 15.1493 17.0137 15.134C17.1799 15.1187 17.3472 15.1457 17.5 15.2125L23.35 17.725C23.5499 17.8083 23.717 17.9549 23.8254 18.1424C23.9338 18.3298 23.9776 18.5477 23.95 18.7625C23.7646 20.2097 23.0582 21.5397 21.9631 22.5038C20.8679 23.4678 19.459 23.9997 18 24C13.4913 24 9.1673 22.209 5.97919 19.0209C2.79107 15.8327 1 11.5087 1 7.00004C1.00033 5.54104 1.53227 4.13214 2.49628 3.03699C3.4603 1.94183 4.79033 1.23546 6.2375 1.05004C6.4523 1.02245 6.67021 1.06623 6.85768 1.17465C7.04515 1.28307 7.19178 1.4501 7.275 1.65004L9.7875 7.51254C9.85284 7.66297 9.88017 7.82717 9.86709 7.99066C9.85401 8.15415 9.80092 8.31191 9.7125 8.45004L7.625 11.625C7.53206 11.7686 7.47752 11.9337 7.46657 12.1044C7.45563 12.2751 7.48866 12.4457 7.5625 12.6V12.6Z" stroke="white" stroke-width="1.5" stroke-linecap="round" stroke-linejoin="round"/>
</svg>
