<svg width="64" height="64" viewBox="0 0 64 64" fill="none" xmlns="http://www.w3.org/2000/svg">
<path d="M32 0C14.3269 0 0 14.3269 0 32C0 49.6731 14.3269 64 32 64C49.6731 64 64 49.6731 64 32C63.98 14.3352 49.6648 0.02 32 0ZM47.0697 11.0636C47.3531 9.61 47.6387 8.1232 47.8177 6.68307C53.5143 10.2524 57.8477 15.6304 60.1241 21.9556C53.5711 23.3465 49.3195 23.1584 47.4855 21.3864C45.4395 19.4084 46.2312 15.3552 47.0697 11.0636ZM43.5761 4.46893C44.3312 4.7876 45.0669 5.1424 45.7891 5.52C45.6073 7.2444 45.336 8.958 44.976 10.6541C44.0656 15.3167 43.124 20.1375 46.0031 22.9208C47.45 24.3197 49.6771 25.0156 52.8176 25.0156C55.4956 24.948 58.1593 24.6041 60.7667 23.9895C60.9465 24.6343 61.1123 25.2849 61.2489 25.9464C51.7448 27.9963 45.5736 27.7144 42.9196 25.0947C39.9967 22.2083 41.2332 16.428 42.4289 10.8384C42.8871 8.69907 43.3445 6.50947 43.5761 4.46893ZM41.5067 3.6936C41.2496 5.94707 40.8609 8.1836 40.3427 10.3916C39.0271 16.5437 37.6667 22.9041 41.4208 26.6124C43.3448 28.5113 46.3541 29.4561 50.6323 29.4561C54.326 29.3683 58.0008 28.8989 61.5981 28.0556C61.6912 28.7576 61.7628 29.466 61.8061 30.1823C45.8737 35.5277 36.1787 36.582 33.0125 33.3031C29.9823 30.1635 32.7928 22.7583 35.5104 15.5957C37.1561 11.2597 38.8413 6.79667 39.3197 3.04373C40.0611 3.23133 40.7885 3.45187 41.5067 3.6936ZM32 61.8667C15.5079 61.8695 2.136 48.502 2.13333 32.0099C2.13133 19.6984 9.68507 8.6476 21.1571 4.17933C20.4397 9.1464 17.3613 15.2597 14.3656 21.1957C9.53227 30.7771 4.53333 40.6844 9.12507 46.7188C11.8199 50.2595 17.574 52.0261 26.7459 52.0251C34.3833 52.0251 44.396 50.7969 56.9737 48.3527C51.4608 56.7805 42.0709 61.8617 32 61.8667ZM58.4264 45.8936C30.8303 51.408 15.2576 51.2572 10.8229 45.4261C7.0396 40.4543 11.7323 31.1521 16.2708 22.1564C19.5501 15.6573 22.9281 8.94853 23.3915 3.4036C24.9348 2.9396 26.5133 2.60227 28.1115 2.39493C28.9275 6.2976 25.0184 12.8912 21.2291 19.2815C16.0635 27.9929 10.7217 37.0012 14.728 42.6555C17.0425 45.9221 22.2613 47.5513 30.7072 47.5513C37.8628 47.5513 47.3392 46.3788 59.3213 44.0443C59.0435 44.6721 58.7451 45.2885 58.4264 45.8936ZM60.2447 41.6888C34.8996 46.7296 20.1684 46.6416 16.4687 41.4219C13.2624 36.8979 18.2457 28.4948 23.0645 20.3697C27.1636 13.4561 31.04 6.89813 30.2261 2.1904C30.8136 2.15587 31.404 2.13333 32 2.13333C32.3389 2.13333 32.6745 2.14773 33.0109 2.15893C32.5897 6.702 29.7016 12.5664 26.898 18.252C22.5917 26.9864 18.5251 35.2353 22.4324 39.9113C24.2532 42.0916 27.6012 43.1884 32.7179 43.1884C39.2188 43.1884 48.5847 41.4108 61.2901 37.8369C61.0287 39.1431 60.6795 40.4299 60.2447 41.6888ZM24.0697 38.5437C21.052 34.9333 24.9968 26.9323 28.8115 19.1959C31.7077 13.3212 34.6899 7.26413 35.1381 2.2992C35.8403 2.37293 36.5327 2.47773 37.2197 2.59947C36.8115 6.124 35.1463 10.5433 33.5157 14.8397C30.4261 22.9815 27.5073 30.672 31.4783 34.7845C33.0887 36.4523 35.7189 37.2908 39.472 37.2908C44.6809 37.2908 52.0576 35.6717 61.8561 32.4184C61.8419 33.4539 61.774 34.488 61.6528 35.5164C40.1561 41.6293 27.5029 42.654 24.0697 38.5437Z" fill="#BEBEBE"/>
<path fill-rule="evenodd" clip-rule="evenodd" d="M47.8177 6.68307C47.6387 8.1232 47.3531 9.61 47.0697 11.0636C46.2312 15.3552 45.4395 19.4084 47.4855 21.3864C49.3195 23.1584 53.5711 23.3465 60.1241 21.9556L60.7667 23.9895C58.1593 24.6041 55.4956 24.948 52.8176 25.0156C49.6771 25.0156 47.45 24.3197 46.0031 22.9208C43.1243 20.1377 44.0654 15.3175 44.9758 10.6553L44.976 10.6541C45.336 8.958 45.6073 7.2444 45.7891 5.52L47.8177 6.68307ZM56.9737 48.3527L58.4264 45.8936C30.8303 51.408 15.2576 51.2572 10.8229 45.4261C7.0396 40.4543 11.7323 31.1521 16.2708 22.1564C19.5501 15.6573 22.9281 8.94853 23.3915 3.4036L21.1571 4.17933C20.4397 9.1464 17.3613 15.2597 14.3656 21.1957L14.3634 21.2001C9.53076 30.7801 4.53403 40.6853 9.12507 46.7188C11.8199 50.2595 17.574 52.0261 26.7459 52.0251C34.3833 52.0251 44.396 50.7969 56.9737 48.3527ZM28.1115 2.39493C28.9275 6.2976 25.0184 12.8912 21.2291 19.2815C16.0635 27.9929 10.7217 37.0012 14.728 42.6555C17.0425 45.9221 22.2613 47.5513 30.7072 47.5513C37.8628 47.5513 47.3392 46.3788 59.3213 44.0443L60.2447 41.6888C34.8996 46.7296 20.1684 46.6416 16.4687 41.4219C13.2624 36.8979 18.2457 28.4948 23.0645 20.3697C27.1636 13.4561 31.04 6.89813 30.2261 2.1904L28.1115 2.39493Z" fill="#D7592A"/>
</svg>
