<svg width="64" height="64" viewBox="0 0 64 64" fill="none" xmlns="http://www.w3.org/2000/svg">
<path d="M62.9333 0H34.1333C33.5443 0 33.0667 0.4776 33.0667 1.06667V15.7516L31.736 14.2308C31.5333 13.9993 31.2408 13.8667 30.9333 13.8667H16C15.4109 13.8667 14.9333 14.3443 14.9333 14.9333V21.3333H8.53333C7.94427 21.3333 7.46667 21.8109 7.46667 22.4V28.8H1.06667C0.4776 28.8 0 29.2776 0 29.8667V62.9333C0 63.5224 0.4776 64 1.06667 64H23.4667C24.0557 64 24.5333 63.5224 24.5333 62.9333V56.5333H30.9333C31.5224 56.5333 32 56.0557 32 55.4667V49.0667H38.4C38.9891 49.0667 39.4667 48.5891 39.4667 48V44.8H62.9333C63.5224 44.8 64 44.3224 64 43.7333V1.06667C64 0.4776 63.5224 0 62.9333 0ZM32 17.7721L36.0492 22.4H32V17.7721ZM22.4 61.8667H2.13333V30.9333H14.9333V38.4C14.9333 38.9891 15.4109 39.4667 16 39.4667H22.4V61.8667ZM17.0667 37.3333V32.7055L21.1159 37.3333H17.0667ZM29.8667 54.4H24.5333V38.4C24.5333 38.1416 24.4395 37.8919 24.2693 37.6973L16.8027 29.164C16.6 28.9327 16.3075 28.8 16 28.8H9.6V23.4667H22.4V30.9333C22.4 31.5224 22.8776 32 23.4667 32H29.8667V54.4ZM24.5333 29.8667V25.2388L28.5825 29.8667H24.5333ZM37.3333 46.9333H32V30.9333C32 30.6749 31.9061 30.4252 31.736 30.2307L24.2693 21.6973C24.0667 21.466 23.7741 21.3333 23.4667 21.3333H17.0667V16H29.8667V23.4667C29.8667 24.0557 30.3443 24.5333 30.9333 24.5333H37.3333V46.9333ZM61.8667 42.6667H39.4667V34.1333H61.8667V42.6667ZM61.8667 32H39.4667V23.4667H61.8667V32ZM61.8667 21.3333H37.9507L35.2 18.1896V12.8H61.8667V21.3333ZM61.8667 10.6667H35.2V2.13333H61.8667V10.6667Z" fill="#BEBEBE"/>
<path d="M52.2672 5.3335H45.8672V7.46683H52.2672V5.3335Z" fill="#BEBEBE"/>
<path d="M52.2672 16H45.8672V18.1333H52.2672V16Z" fill="#BEBEBE"/>
<path d="M52.2672 26.6665H45.8672V28.7998H52.2672V26.6665Z" fill="#BEBEBE"/>
<path d="M52.2672 37.3335H45.8672V39.4668H52.2672V37.3335Z" fill="#BEBEBE"/>
<path d="M12.8009 34.1333H4.26758V36.2666H12.8009V34.1333Z" fill="#D7592A"/>
<path d="M12.8009 39.4668H4.26758V41.6001H12.8009V39.4668Z" fill="#D7592A"/>
<path d="M20.2676 43.7334H4.26758V45.8667H20.2676V43.7334Z" fill="#D7592A"/>
<path d="M20.2676 48H4.26758V50.1333H20.2676V48Z" fill="#D7592A"/>
<path d="M20.2676 52.2666H4.26758V54.3999H20.2676V52.2666Z" fill="#D7592A"/>
<path d="M12.8009 56.5332H4.26758V58.6665H12.8009V56.5332Z" fill="#D7592A"/>
<path d="M20.2667 56.5334H16V58.6668H20.2667V56.5334Z" fill="#D7592A"/>
</svg>
