<svg width="64" height="64" viewBox="0 0 64 64" fill="none" xmlns="http://www.w3.org/2000/svg">
<path d="M61.6611 13.6005C61.6498 13.592 61.6384 13.5838 61.6267 13.576L57.9353 11.0835C57.5572 10.829 57.0466 10.921 56.7801 11.2919L56.0937 12.2498V5.84848C56.0937 5.37991 55.7159 5 55.2499 5H35.8437C35.3778 5 35 5.37991 35 5.84848V32.1515C35 32.6201 35.3778 33 35.8437 33H55.2499C55.7159 33 56.0937 32.6201 56.0937 32.1515V22.5147L61.8322 14.7882C62.1111 14.4127 62.0344 13.8809 61.6611 13.6005ZM54.4062 31.303H36.6875V6.69697H54.4062V14.6046L49.4838 21.4738L49.4836 21.4742L49.3977 21.5939C49.319 21.7038 49.2675 21.8309 49.2473 21.9647L48.509 26.935C48.4402 27.3986 48.7581 27.8305 49.2192 27.8998C49.4204 27.93 49.6257 27.8861 49.7973 27.7761L54.227 24.9361C54.294 24.8922 54.3543 24.8389 54.4062 24.7777V31.303ZM50.7507 23.3319L52.1889 24.2302L50.452 25.3438L50.7507 23.3319ZM53.5608 23.0892L51.3814 21.7282L57.6719 12.95L59.949 14.4874L53.5608 23.0892Z" fill="#D7592A"/>
<path d="M61.7607 48.6041C61.6347 48.3425 61.4075 48.1435 61.1315 48.0532L53.9019 45.688C54.3967 45.3795 54.5478 44.7283 54.2394 44.2335C54.108 44.0228 53.9067 43.8651 53.6706 43.7881L46.48 41.3913C46.9586 41.058 47.0763 40.3999 46.743 39.9215C46.6 39.7163 46.3888 39.5684 46.1471 39.5044L35.4426 36.5849L43.4055 19.0048C45.3954 14.9972 45.2476 10.2597 43.0118 6.384C40.9666 2.70147 37.1915 0.309338 32.9883 0.0324051C32.6774 0.0109384 32.3159 5.08354e-06 31.9998 5.08354e-06C30.7751 -0.00106158 29.5562 0.165738 28.3768 0.495872C24.793 1.5028 21.8494 4.0636 20.356 7.47347C18.7331 11.0817 18.8107 15.2269 20.5675 18.7719L28.5735 36.5803L17.8524 39.5043C17.2887 39.6537 16.953 40.2317 17.1023 40.7955C17.1664 41.0372 17.3142 41.2484 17.5194 41.3913L10.329 43.788C9.7743 43.9691 9.4715 44.5653 9.65243 45.12C9.72363 45.338 9.86376 45.5269 10.0518 45.6583L2.8623 48.0547C2.3035 48.2409 2.0015 48.8449 2.1879 49.4037C2.2791 49.6775 2.47736 49.9025 2.73736 50.0276L31.5374 63.8943C31.8296 64.0352 32.1702 64.0352 32.4623 63.8943L61.2623 50.0276C61.793 49.7721 62.0162 49.1348 61.7607 48.6041ZM22.4956 17.8599C21.0094 14.8764 20.939 11.3836 22.304 8.34267C23.539 5.5152 25.9763 3.39014 28.9456 2.552C29.9398 2.2736 30.9674 2.13267 31.9998 2.1332C32.2691 2.1332 32.5774 2.142 32.8424 2.16027C36.3332 2.3944 39.4663 4.38494 41.1612 7.44574C43.0454 10.7159 43.1644 14.7129 41.4784 18.0895L32.0035 39.0067L22.4956 17.8599ZM29.4591 38.5501L31.0268 42.0375C31.1988 42.4199 31.5788 42.666 31.9982 42.6667H31.9998C32.4187 42.6668 32.7988 42.4217 32.9716 42.0401L34.5511 38.5531L42.7607 40.7923L31.9998 45.7584L21.2388 40.7923L29.4591 38.5501ZM20.3062 42.7113L31.553 47.9021C31.8366 48.0327 32.1631 48.0327 32.4467 47.9021L43.6935 42.7113L50.4046 44.948L31.9999 53.2303L13.5952 44.948L20.3062 42.7113ZM31.9998 61.7495L6.03256 49.2469L12.878 46.9651L31.5622 55.3729C31.8404 55.498 32.1588 55.498 32.4372 55.3729L51.0476 46.9983L57.9476 49.2557L31.9998 61.7495Z" fill="#262627"/>
<path d="M22.4956 17.8599C21.0094 14.8764 20.939 11.3836 22.304 8.34267C23.539 5.5152 25.9763 3.39014 28.9456 2.552C29.9398 2.2736 30.9674 2.13267 31.9998 2.1332C32.2691 2.1332 32.5774 2.142 32.8424 2.16027C36.3332 2.3944 39.4663 4.38494 41.1612 7.44574C43.0454 10.7159 43.1644 14.7129 41.4784 18.0895L32.0035 39.0067L22.4956 17.8599Z" fill="#262627"/>
<path d="M61.7607 48.6041C61.6347 48.3425 61.4075 48.1435 61.1315 48.0532L53.9019 45.688C54.3967 45.3795 54.5478 44.7283 54.2394 44.2335C54.108 44.0228 53.9067 43.8651 53.6706 43.7881L46.48 41.3913C46.9586 41.058 47.0763 40.3999 46.743 39.9215C46.6 39.7163 46.3888 39.5684 46.1471 39.5044L35.4426 36.5849L43.4055 19.0048C45.3954 14.9972 45.2476 10.2597 43.0118 6.384C40.9666 2.70147 37.1915 0.309338 32.9883 0.0324051C32.6774 0.0109384 32.3159 5.08354e-06 31.9998 5.08354e-06C30.7751 -0.00106158 29.5562 0.165738 28.3768 0.495872C24.793 1.5028 21.8494 4.0636 20.356 7.47347C18.7331 11.0817 18.8107 15.2269 20.5675 18.7719L28.5735 36.5803L17.8524 39.5043C17.2887 39.6537 16.953 40.2317 17.1023 40.7955C17.1664 41.0372 17.3142 41.2484 17.5194 41.3913L10.329 43.788C9.7743 43.9691 9.4715 44.5653 9.65243 45.12C9.72363 45.338 9.86376 45.5269 10.0518 45.6583L2.8623 48.0547C2.3035 48.2409 2.0015 48.8449 2.1879 49.4037C2.2791 49.6775 2.47736 49.9025 2.73736 50.0276L31.5374 63.8943C31.8296 64.0352 32.1702 64.0352 32.4623 63.8943L61.2623 50.0276C61.793 49.7721 62.0162 49.1348 61.7607 48.6041ZM22.4956 17.8599C21.0094 14.8764 20.939 11.3836 22.304 8.34267C23.539 5.5152 25.9763 3.39014 28.9456 2.552C29.9398 2.2736 30.9674 2.13267 31.9998 2.1332C32.2691 2.1332 32.5774 2.142 32.8424 2.16027C36.3332 2.3944 39.4663 4.38494 41.1612 7.44574C43.0454 10.7159 43.1644 14.7129 41.4784 18.0895L32.0035 39.0067L22.4956 17.8599ZM29.4591 38.5501L31.0268 42.0375C31.1988 42.4199 31.5788 42.666 31.9982 42.6667H31.9998C32.4187 42.6668 32.7988 42.4217 32.9716 42.0401L34.5511 38.5531L42.7607 40.7923L31.9998 45.7584L21.2388 40.7923L29.4591 38.5501ZM20.3062 42.7113L31.553 47.9021C31.8366 48.0327 32.1631 48.0327 32.4467 47.9021L43.6935 42.7113L50.4046 44.948L31.9999 53.2303L13.5952 44.948L20.3062 42.7113ZM31.9998 61.7495L6.03256 49.2469L12.878 46.9651L31.5622 55.3729C31.8404 55.498 32.1588 55.498 32.4372 55.3729L51.0476 46.9983L57.9476 49.2557L31.9998 61.7495Z" fill="#BEBEBE"/>
<path d="M31.9999 5.33325C27.8761 5.33325 24.5332 8.67619 24.5332 12.7999C24.5332 16.9237 27.8761 20.2666 31.9999 20.2666C36.1217 20.2619 39.4619 16.9218 39.4665 12.7999C39.4665 8.67619 36.1236 5.33325 31.9999 5.33325ZM31.9999 18.1333C29.0544 18.1333 26.6665 15.7454 26.6665 12.7999C26.6665 9.85445 29.0544 7.46659 31.9999 7.46659C34.9453 7.46659 37.3332 9.85445 37.3332 12.7999C37.3297 15.7441 34.944 18.1298 31.9999 18.1333Z" fill="#D7592A"/>
</svg>
