<svg width="64" height="64" viewBox="0 0 64 64" fill="none" xmlns="http://www.w3.org/2000/svg">
<g clip-path="url(#clip0_543_12039)">
<path d="M59.0862 10.7533C58.9534 10.6963 58.8103 10.6669 58.6658 10.6669H56.4785C55.9217 4.63003 50.8618 0.00876609 44.7993 0.000366211H19.1997C12.7227 0.00769944 7.47389 5.25656 7.46656 11.7335V22.4H1.06665C0.477726 22.3999 0.000133359 22.8772 2.79258e-08 23.4662C2.79258e-08 23.4663 2.79258e-08 23.4666 2.79258e-08 23.4667V38.3998C-0.000133303 38.9887 0.477193 39.4663 1.06612 39.4665C1.06625 39.4665 1.06652 39.4665 1.06665 39.4665H15.9998C16.5887 39.4666 17.0663 38.9893 17.0664 38.4003C17.0664 38.4002 17.0664 38.3999 17.0664 38.3998V23.4667C17.0666 22.8778 16.5892 22.4002 16.0003 22.4C16.0002 22.4 15.9999 22.4 15.9998 22.4H9.59986V11.7335C9.60586 6.43414 13.9003 2.13967 19.1997 2.13367H44.7993C49.6851 2.14047 53.7884 5.81188 54.3363 10.6669H52.2659C51.6768 10.6669 51.1994 11.1443 51.1993 11.7333C51.1993 11.8778 51.2286 12.0209 51.2857 12.1538L54.4856 19.6203C54.7176 20.1617 55.3445 20.4125 55.8858 20.1805C56.1376 20.0726 56.3381 19.8721 56.446 19.6203L59.6459 12.1538C59.8782 11.6126 59.6275 10.9855 59.0862 10.7533ZM14.9331 24.5335V37.3333H2.1333V24.5335H14.9331ZM55.4659 16.4924L53.8836 12.8003H57.0481L55.4659 16.4924Z" fill="#BEBEBE"/>
<path d="M63.932 29.8667C63.396 25.599 59.7665 22.3981 55.4652 22.4001C50.7546 22.398 46.9341 26.215 46.932 30.9256C46.93 35.2268 50.1309 38.8564 54.3986 39.3924V50.1331C54.3912 56.61 49.1424 61.8589 42.6654 61.8662H20.2657C14.2033 61.8577 9.14334 57.2366 8.58655 51.1997H10.6659C11.2549 51.1997 11.7324 50.7223 11.7325 50.1333C11.7325 49.9888 11.7032 49.8457 11.6461 49.7128L8.44616 42.2463C8.21416 41.7049 7.58723 41.4541 7.04591 41.6861C6.79418 41.794 6.59365 41.9945 6.48578 42.2463L3.28583 49.7128C3.0537 50.2541 3.30423 50.8812 3.84555 51.1133C3.97835 51.1703 4.12142 51.1997 4.26595 51.1997H6.45325C7.01444 58.4158 13.028 63.9883 20.2657 63.9995H42.6654C50.3201 63.9909 56.5232 57.7878 56.5319 50.1331V39.3924C61.2058 38.8054 64.519 34.5406 63.932 29.8667ZM5.88366 49.0664L7.4659 45.3742L9.04815 49.0663H5.88366V49.0664ZM55.4652 37.3333C51.9306 37.3333 49.0653 34.468 49.0653 30.9334C49.0653 27.3987 51.9306 24.5334 55.4652 24.5334C58.9998 24.5334 61.8651 27.3987 61.8651 30.9334C61.8613 34.4662 58.9982 37.3294 55.4652 37.3333Z" fill="#BEBEBE"/>
<path d="M44.6863 31.5227C44.5831 31.3165 44.4157 31.1491 44.2095 31.0459L37.8096 27.846C37.2824 27.5828 36.6414 27.7968 36.3783 28.324C36.3044 28.4718 36.266 28.6349 36.2659 28.8001V30.9334H27.7326V28.8001C27.7324 28.2108 27.2544 27.7333 26.6651 27.7336C26.4997 27.7337 26.3368 27.7721 26.1889 27.846L19.789 31.0459C19.2621 31.3095 19.0485 31.9505 19.3122 32.4774C19.4154 32.6837 19.5828 32.851 19.789 32.9542L26.1889 36.1542C26.7161 36.4173 27.3571 36.2034 27.6202 35.6762C27.6941 35.5283 27.7325 35.3652 27.7326 35.2V33.0667H36.2659V35.2C36.2659 35.5698 36.4575 35.9131 36.7721 36.1073C37.0865 36.3017 37.479 36.3195 37.8096 36.1543L44.2095 32.9543C44.7363 32.6906 44.9499 32.0497 44.6863 31.5227ZM25.5992 33.4739L22.6514 31.9999L25.5992 30.5261V33.4739ZM38.399 33.4739V30.5261L41.3468 32.0001L38.399 33.4739Z" fill="#D7592A"/>
</g>
<defs>
<clipPath id="clip0_543_12039">
<rect width="64" height="64" fill="white"/>
</clipPath>
</defs>
</svg>
