<svg width="64" height="64" viewBox="0 0 64 64" fill="none" xmlns="http://www.w3.org/2000/svg">
<path d="M48.0005 4.26667C48.0004 4.26667 48.0001 4.26667 48 4.26667H34.1333V1.06667C34.1335 0.477733 33.6561 0.000133361 33.0672 2.79262e-08C33.0671 2.79262e-08 33.0668 2.79262e-08 33.0667 2.79262e-08H16C15.4111 -0.000133305 14.9335 0.4772 14.9333 1.06613C14.9333 1.06627 14.9333 1.06653 14.9333 1.06667V4.26667H1.06667C0.477733 4.26653 0.000133361 4.74387 2.79262e-08 5.3328C2.79262e-08 5.33293 2.79262e-08 5.3332 2.79262e-08 5.33333V62.9333C-0.000133305 63.5223 0.4772 63.9999 1.06613 64C1.06627 64 1.06653 64 1.06667 64H48C48.5889 64.0001 49.0665 63.5228 49.0667 62.9339C49.0667 62.9337 49.0667 62.9335 49.0667 62.9333V5.33333C49.0668 4.7444 48.5895 4.2668 48.0005 4.26667ZM17.0667 2.13333H32V8.53333H17.0667V2.13333ZM46.9333 61.8667H2.13333V6.4H14.9333V9.6C14.9332 10.1889 15.4105 10.6665 15.9995 10.6667C15.9996 10.6667 15.9999 10.6667 16 10.6667H33.0667C33.6556 10.6668 34.1332 10.1895 34.1333 9.60053C34.1333 9.6004 34.1333 9.60013 34.1333 9.6V6.4H46.9333V61.8667Z" fill="#BEBEBE"/>
<path d="M27.7323 49.0667H4.26562V51.2H27.7323V49.0667Z" fill="#BEBEBE"/>
<path d="M44.8005 49.0667H29.8672V51.2H44.8005V49.0667Z" fill="#BEBEBE"/>
<path d="M44.799 53.3333H4.26562V55.4666H44.799V53.3333Z" fill="#BEBEBE"/>
<path d="M21.3323 57.6001H4.26562V59.7334H21.3323V57.6001Z" fill="#BEBEBE"/>
<path d="M44.8001 57.6001H23.4668V59.7334H44.8001V57.6001Z" fill="#BEBEBE"/>
<path d="M11.7328 30.9333C11.7327 30.9333 11.7324 30.9333 11.7323 30.9333H5.33229C4.74336 30.9332 4.26576 31.4105 4.26563 31.9995C4.26563 31.9996 4.26563 31.9999 4.26563 32V45.8667C4.26549 46.4556 4.74283 46.9332 5.33176 46.9334C5.33189 46.9334 5.33216 46.9334 5.33229 46.9334H11.7323C12.3212 46.9335 12.7988 46.4562 12.799 45.8672C12.799 45.8671 12.799 45.8668 12.799 45.8667V32C12.7991 31.4111 12.3218 30.9335 11.7328 30.9333ZM10.6656 44.8H6.39896V33.0667H10.6656V44.8Z" fill="#BEBEBE"/>
<path d="M22.4008 26.6667C22.4007 26.6667 22.4004 26.6667 22.4003 26.6667H16.0003C15.4113 26.6666 14.9337 27.1439 14.9336 27.7329C14.9336 27.733 14.9336 27.7333 14.9336 27.7334V45.8667C14.9335 46.4557 15.4108 46.9333 15.9997 46.9334C15.9999 46.9334 16.0001 46.9334 16.0003 46.9334H22.4003C22.9892 46.9335 23.4668 46.4562 23.4669 45.8673C23.4669 45.8671 23.4669 45.8669 23.4669 45.8667V27.7334C23.4671 27.1445 22.9897 26.6669 22.4008 26.6667ZM21.3336 44.8001H17.0669V28.8001H21.3336V44.8001Z" fill="#BEBEBE"/>
<path d="M33.0668 22.3999C33.0667 22.3999 33.0664 22.3999 33.0663 22.3999H26.6663C26.0773 22.3998 25.5997 22.8771 25.5996 23.466C25.5996 23.4662 25.5996 23.4664 25.5996 23.4666V45.8666C25.5995 46.4555 26.0768 46.9331 26.6657 46.9332C26.6659 46.9332 26.6661 46.9332 26.6663 46.9332H33.0663C33.6552 46.9334 34.1328 46.456 34.1329 45.8671C34.1329 45.867 34.1329 45.8667 34.1329 45.8666V23.4666C34.1331 22.8776 33.6557 22.4 33.0668 22.3999ZM31.9996 44.7999H27.7329V24.5332H31.9996V44.7999Z" fill="#BEBEBE"/>
<path d="M43.7328 18.1333C43.7327 18.1333 43.7324 18.1333 43.7323 18.1333H37.3323C36.7434 18.1332 36.2658 18.6105 36.2656 19.1994C36.2656 19.1996 36.2656 19.1998 36.2656 19.2V45.8666C36.2655 46.4556 36.7428 46.9332 37.3318 46.9333C37.3319 46.9333 37.3322 46.9333 37.3323 46.9333H43.7323C44.3212 46.9334 44.7988 46.4561 44.799 45.8672C44.799 45.867 44.799 45.8668 44.799 45.8666V19.2C44.7991 18.611 44.3218 18.1334 43.7328 18.1333ZM42.6656 44.8H38.399V20.2666H42.6656V44.8Z" fill="#D7592A"/>
<path d="M43.5233 10.6875L32.8567 12.8208C32.7201 12.8482 32.5903 12.902 32.4744 12.9792L23.1431 19.2H13.866C13.6661 19.2 13.4702 19.2563 13.3009 19.3626L4.76758 24.6959L5.89784 26.5043L14.1717 21.3334H23.466C23.6765 21.3332 23.8824 21.271 24.0577 21.1542L33.4823 14.8708L43.9421 12.7791L43.5233 10.6875Z" fill="#D7592A"/>
</svg>
