<svg width="64" height="64" viewBox="0 0 64 64" fill="none" xmlns="http://www.w3.org/2000/svg">
<path d="M62.9339 2.79262e-08C62.9337 2.79262e-08 62.9335 2.79262e-08 62.9333 2.79262e-08H1.06667C0.477733 -0.000133305 0.000133361 0.4772 2.79262e-08 1.06613C2.79262e-08 1.06627 2.79262e-08 1.06653 2.79262e-08 1.06667V62.9333C-0.000133305 63.5223 0.4772 63.9999 1.06613 64C1.06627 64 1.06653 64 1.06667 64H62.9333C63.5223 64.0001 63.9999 63.5228 64 62.9339C64 62.9337 64 62.9335 64 62.9333V1.06667C64.0001 0.477733 63.5228 0.000133361 62.9339 2.79262e-08ZM61.8667 61.8667H2.13333V2.13333H21.3696C21.7391 9.29507 25.8229 13.8667 32 13.8667H34.1333C38.2571 13.8667 41.6 17.2096 41.6 21.3333C41.6 25.4571 38.2571 28.8 34.1333 28.8H30.9333C25.1916 28.8 21.3333 33.3011 21.3333 40C21.3403 46.1827 26.3507 51.1931 32.5333 51.2H61.8667V61.8667ZM61.8667 49.0667H32.5333C27.5284 49.0609 23.4724 45.0049 23.4667 40C23.4667 35.8177 25.4219 30.9333 30.9333 30.9333H34.1333C39.4353 30.9333 43.7333 26.6352 43.7333 21.3333C43.7333 16.0313 39.4353 11.7333 34.1333 11.7333H32C26.1409 11.7333 23.7967 6.95493 23.5016 2.13333H61.8667V49.0667Z" fill="#BEBEBE"/>
<path d="M9.60091 4.2666C6.65544 4.2666 4.26758 6.65447 4.26758 9.59993C4.26758 12.5454 6.65544 14.9333 9.60091 14.9333C12.545 14.9298 14.9308 12.5441 14.9342 9.59993C14.9342 6.65447 12.5464 4.2666 9.60091 4.2666ZM9.60091 12.7999C7.83358 12.7999 6.40091 11.3673 6.40091 9.59993C6.40091 7.8326 7.83358 6.39993 9.60091 6.39993C11.3682 6.39993 12.8009 7.8326 12.8009 9.59993C12.799 11.3665 11.3674 12.7981 9.60091 12.7999Z" fill="#BEBEBE"/>
<path d="M36.1536 22.9897L32.9536 16.5897C32.6396 16.0627 31.9579 15.8901 31.431 16.2041C31.2723 16.2986 31.1398 16.4311 31.0452 16.5897L27.8452 22.9897C27.5818 23.5166 27.7955 24.1574 28.3224 24.4209C28.4706 24.4949 28.6339 24.5334 28.7994 24.5334H35.1994C35.7886 24.5334 36.2662 24.0558 36.2662 23.4666C36.2663 23.301 36.2278 23.1378 36.1536 22.9897ZM30.5255 22.4001L31.9995 19.4517L33.4735 22.4001H30.5255Z" fill="#BEBEBE"/>
<path d="M39.4672 36.2666C39.4671 36.2666 39.4668 36.2666 39.4667 36.2666H33.0667C32.4777 36.2665 32.0001 36.7438 32 37.3327C32 37.3329 32 37.3331 32 37.3333V43.7333C31.9999 44.3222 32.4772 44.7998 33.0661 44.7999C33.0663 44.7999 33.0665 44.7999 33.0667 44.7999H39.4667C40.0556 44.8001 40.5332 44.3227 40.5333 43.7338C40.5333 43.7337 40.5333 43.7334 40.5333 43.7333V37.3333C40.5335 36.7443 40.0561 36.2667 39.4672 36.2666ZM38.4 42.6666H34.1333V38.3999H38.4V42.6666Z" fill="#BEBEBE"/>
<path d="M56.5326 30.9334V27.7334H54.3992V30.9334H51.1992V33.0667H54.3992V36.2667H56.5326V33.0667H59.7326V30.9334H56.5326Z" fill="#D7592A"/>
<path d="M57.4877 9.12287L55.3544 4.8562C55.1736 4.49487 54.8042 4.2666 54.4002 4.2666H50.1336C49.7296 4.2666 49.3602 4.49487 49.1794 4.8562L47.0461 9.12287C46.8961 9.42327 46.8961 9.77673 47.0461 10.077L49.1794 14.3437C49.3602 14.705 49.7296 14.9333 50.1336 14.9333H54.4002C54.8042 14.9333 55.1736 14.705 55.3544 14.3437L57.4877 10.077C57.6377 9.7766 57.6377 9.42327 57.4877 9.12287ZM53.7409 12.7999H50.793L49.193 9.59993L50.793 6.39993H53.7409L55.3409 9.59993L53.7409 12.7999Z" fill="#BEBEBE"/>
<path d="M8.53425 20.2666H4.26758V22.3999H8.53425V20.2666Z" fill="#BEBEBE"/>
<path d="M14.9327 20.2666H10.666V22.3999H14.9327V20.2666Z" fill="#BEBEBE"/>
<path d="M21.3331 20.2666H17.0664V22.3999H21.3331V20.2666Z" fill="#BEBEBE"/>
<path d="M21.3326 24.5332H19.1992V28.7999H21.3326V24.5332Z" fill="#BEBEBE"/>
<path d="M21.3331 30.9333H17.0664V33.0667H21.3331V30.9333Z" fill="#BEBEBE"/>
<path d="M14.9341 30.9333H12.8008V35.2H14.9341V30.9333Z" fill="#BEBEBE"/>
<path d="M14.9341 37.3335H12.8008V41.6002H14.9341V37.3335Z" fill="#BEBEBE"/>
<path d="M14.9341 43.7334H12.8008V48.0001H14.9341V43.7334Z" fill="#BEBEBE"/>
<path d="M17.0674 50.1333H12.8008V52.2666H17.0674V50.1333Z" fill="#BEBEBE"/>
<path d="M25.9877 53.021L24.4794 51.5127L22.217 53.7751L19.9536 51.5127L18.4453 53.021L20.7077 55.2834L18.4453 57.5468L19.9536 59.0551L22.217 56.7916L24.4794 59.0551L25.9877 57.5468L23.7253 55.2834L25.9877 53.021Z" fill="#D7592A"/>
<path d="M59.7329 54.3999H57.5996V56.5332H59.7329V54.3999Z" fill="#BEBEBE"/>
<path d="M55.4673 54.3999H53.334V56.5332H55.4673V54.3999Z" fill="#BEBEBE"/>
<path d="M51.1997 54.3999H49.0664V56.5332H51.1997V54.3999Z" fill="#BEBEBE"/>
<path d="M46.9341 54.3999H44.8008V56.5332H46.9341V54.3999Z" fill="#BEBEBE"/>
<path d="M42.6665 54.3999H40.5332V56.5332H42.6665V54.3999Z" fill="#BEBEBE"/>
<path d="M38.4009 54.3999H36.2676V56.5332H38.4009V54.3999Z" fill="#BEBEBE"/>
<path d="M34.1333 54.3999H32V56.5332H34.1333V54.3999Z" fill="#BEBEBE"/>
<path d="M29.8658 54.3999H27.7324V56.5332H29.8658V54.3999Z" fill="#BEBEBE"/>
</svg>
