<svg width="17" height="20" viewBox="0 0 17 20" fill="none" xmlns="http://www.w3.org/2000/svg">
<path d="M12.0004 5.5001L4.19103 13.4407C3.93249 13.7261 3.79358 14.0999 3.80306 14.4848C3.81254 14.8697 3.96968 15.2363 4.24194 15.5086C4.51421 15.7808 4.88076 15.938 5.26568 15.9474C5.65061 15.9569 6.02445 15.818 6.30978 15.5595L15.6192 6.11885C16.1362 5.54817 16.4141 4.80051 16.3951 4.03065C16.3761 3.26079 16.0619 2.52771 15.5173 1.98317C14.9728 1.43864 14.2397 1.12436 13.4699 1.1054C12.7 1.08645 11.9523 1.36427 11.3817 1.88135L2.07228 11.322C1.22939 12.1649 0.755859 13.3081 0.755859 14.5001C0.755859 15.6921 1.22939 16.8353 2.07228 17.6782C2.91517 18.5211 4.05838 18.9946 5.25041 18.9946C6.44244 18.9946 7.58564 18.5211 8.42853 17.6782L16.1254 10.0001" stroke="white" stroke-linecap="round" stroke-linejoin="round"/>
</svg>
