<svg width="24" height="24" viewBox="0 0 24 24" fill="none" xmlns="http://www.w3.org/2000/svg">
<g clip-path="url(#clip0_543_11994)">
<path d="M22 4.145L17.986 0H10C9.20435 0 8.44129 0.31607 7.87868 0.878679C7.31607 1.44129 7 2.20435 7 3V4H5C4.20435 4 3.44129 4.31607 2.87868 4.87868C2.31607 5.44129 2 6.20435 2 7V24H18V19H22V4.145ZM16 22H4V7C4 6.73478 4.10536 6.48043 4.29289 6.29289C4.48043 6.10536 4.73478 6 5 6H7V19H16V22ZM9 17V3C9 2.73478 9.10536 2.48043 9.2929 2.29289C9.48043 2.10536 9.73479 2 10 2H16V6H20V17H9Z" fill="#BEBEBE"/>
</g>
<defs>
<clipPath id="clip0_543_11994">
<rect width="24" height="24" fill="white"/>
</clipPath>
</defs>
</svg>
